<svg width="800" height="800" viewBox="0 0 800 800" fill="none" xmlns="http://www.w3.org/2000/svg">
<path d="M510.004 750.885C535.658 750.885 535.658 789.9 510.004 789.9H39.9499C29.1782 789.9 20.4474 781.16 20.4474 770.388V182.96C20.4474 177.574 22.6301 172.689 26.1545 169.164L179.51 15.8181C183.318 12.0102 188.307 10.1016 193.296 10.1016H634.455C645.227 10.1016 653.967 18.8418 653.967 29.6135V371.059C653.967 396.722 614.953 396.722 614.953 371.059V49.116H201.375L59.4619 191.038V750.885H510.004ZM178.149 578.934C152.486 578.934 152.486 539.92 178.149 539.92H467.919C493.582 539.92 493.582 578.934 467.919 578.934H178.149ZM178.149 319.392C152.486 319.392 152.486 280.378 178.149 280.378H467.919C493.582 280.378 493.582 319.392 467.919 319.392H178.149ZM178.149 405.906C152.486 405.906 152.486 366.892 178.149 366.892H467.919C493.582 366.892 493.582 405.906 467.919 405.906H178.149ZM178.149 492.42C152.486 492.42 152.486 453.406 178.149 453.406H467.919C493.582 453.406 493.582 492.42 467.919 492.42H178.149ZM178.149 232.878C152.486 232.878 152.486 193.864 178.149 193.864H467.919C493.582 193.864 493.582 232.878 467.919 232.878H178.149ZM647.353 457.998C694.446 457.998 732.62 496.172 732.62 543.265C732.62 560.367 727.584 576.289 718.919 589.631C754.418 613.187 777.001 652.069 779.515 694.702C781.017 720.271 742.144 722.548 740.651 696.989C738.658 663.266 719.287 633.228 689.505 617.391C677.07 624.478 662.689 628.522 647.353 628.522C630.761 628.522 615.274 623.788 602.178 615.587C570.581 630.818 549.642 661.924 547.573 696.989C546.07 722.548 507.207 720.271 508.709 694.702C511.346 650.122 535.875 609.776 573.982 586.72C566.433 573.993 562.096 559.139 562.096 543.265C562.096 496.181 600.269 457.998 647.353 457.998ZM647.353 497.012C621.813 497.012 601.11 517.724 601.11 543.265C601.11 568.805 621.813 589.508 647.353 589.508C672.893 589.508 693.605 568.805 693.605 543.265C693.605 517.724 672.903 497.012 647.353 497.012Z" fill="white"/>
</svg>
