<?xml version="1.0" encoding="UTF-8" standalone="no"?> <svg xmlns="http://www.w3.org/2000/svg" xmlns:xlink="http://www.w3.org/1999/xlink" xmlns:serif="http://www.serif.com/" width="100%" height="100%" viewBox="0 0 29 29" version="1.1" xml:space="preserve" style="fill-rule:evenodd;clip-rule:evenodd;stroke-linejoin:round;stroke-miterlimit:2;"> <g transform="matrix(1,0,0,1,-1203,-260)"> <g transform="matrix(1,0,0,1,80.4555,0)"> <g id="DonDivi-Grid---Icon-White" serif:id="DonDivi Grid - Icon White"> <g transform="matrix(0.215385,0,0,0.215385,1083.66,200.462)"> <rect x="185" y="281" width="130" height="130" style="fill:none;"></rect> </g> <g transform="matrix(1,0,0,1,10.0751,0)"> <path d="M1119.58,282.485L1119.58,267.485C1119.58,267.292 1119.73,267.135 1119.93,267.135L1134.93,267.135C1135.12,267.135 1135.28,267.292 1135.28,267.485L1135.28,282.485C1135.28,282.679 1135.12,282.835 1134.93,282.835L1119.93,282.835C1119.73,282.835 1119.58,282.679 1119.58,282.485ZM1129.58,267.835L1120.28,267.835L1120.28,272.135L1129.58,272.135L1129.58,267.835ZM1134.58,277.135L1134.58,267.835L1130.28,267.835L1130.28,277.135L1134.58,277.135ZM1125.28,282.135L1134.58,282.135L1134.58,277.835L1125.28,277.835L1125.28,282.135ZM1120.28,272.835L1120.28,282.135L1124.58,282.135L1124.58,272.835L1120.28,272.835ZM1129.58,272.835L1125.28,272.835L1125.28,277.135L1129.58,277.135L1129.58,272.835Z" style="fill:white;"></path> </g> </g> </g> </g> </svg> 