<?xml version="1.0" encoding="UTF-8" standalone="no"?> <svg xmlns="http://www.w3.org/2000/svg" xmlns:xlink="http://www.w3.org/1999/xlink" xmlns:serif="http://www.serif.com/" width="100%" height="100%" viewBox="0 0 29 29" version="1.1" xml:space="preserve" style="fill-rule:evenodd;clip-rule:evenodd;stroke-linejoin:round;stroke-miterlimit:2;"> <g transform="matrix(1,0,0,1,-1234,-260)"> <g transform="matrix(1,0,0,1,80.4555,0)"> <g id="DonDivi-Hotspots---Icon-White" serif:id="DonDivi Hotspots - Icon White"> <g transform="matrix(0.215385,0,0,0.215385,1114.57,200.462)"> <rect x="185" y="281" width="130" height="130" style="fill:none;"></rect> </g> <path d="M1176.27,269.985L1176.27,279.985C1176.27,280.179 1176.11,280.335 1175.92,280.335L1160.92,280.335C1160.72,280.335 1160.57,280.179 1160.57,279.985L1160.57,269.985C1160.57,269.792 1160.72,269.635 1160.92,269.635L1175.92,269.635C1176.11,269.635 1176.27,269.792 1176.27,269.985ZM1175.57,270.335L1161.27,270.335L1161.27,279.635L1175.57,279.635L1175.57,270.335ZM1171.36,276.368C1171.77,276.368 1172.11,276.702 1172.11,277.113C1172.11,277.524 1171.77,277.858 1171.36,277.858C1170.95,277.858 1170.62,277.524 1170.62,277.113C1170.62,276.702 1170.95,276.368 1171.36,276.368ZM1168.42,272.006C1168.83,272.006 1169.16,272.34 1169.16,272.751C1169.16,273.162 1168.83,273.496 1168.42,273.496C1168.01,273.496 1167.67,273.162 1167.67,272.751C1167.67,272.34 1168.01,272.006 1168.42,272.006ZM1164.81,274.241C1165.22,274.241 1165.55,274.574 1165.55,274.985C1165.55,275.397 1165.22,275.73 1164.81,275.73C1164.39,275.73 1164.06,275.397 1164.06,274.985C1164.06,274.574 1164.39,274.241 1164.81,274.241Z" style="fill:white;"></path> </g> </g> </g> </svg> 