<?xml version="1.0" encoding="UTF-8" standalone="no"?> <svg xmlns="http://www.w3.org/2000/svg" xmlns:xlink="http://www.w3.org/1999/xlink" xmlns:serif="http://www.serif.com/" width="100%" height="100%" viewBox="0 0 29 29" version="1.1" xml:space="preserve" style="fill-rule:evenodd;clip-rule:evenodd;stroke-linejoin:round;stroke-miterlimit:2;"> <g transform="matrix(1,0,0,1,-1234,-230)"> <g transform="matrix(1,0,0,1,80.4555,0)"> <g id="DonDivi-Gallery---Icon-White" serif:id="DonDivi Gallery - Icon White"> <g transform="matrix(0.215385,0,0,0.215385,1114.57,170.455)"> <rect x="185" y="281" width="130" height="130" style="fill:none;"></rect> </g> <path d="M1160.47,250.462L1160.47,240.462C1160.47,240.269 1160.63,240.112 1160.82,240.112L1175.82,240.112C1176.01,240.112 1176.17,240.269 1176.17,240.462L1176.17,250.462C1176.17,250.655 1176.01,250.812 1175.82,250.812L1160.82,250.812C1160.63,250.812 1160.47,250.655 1160.47,250.462ZM1161.17,245.812L1161.17,250.112L1165.47,250.112L1165.47,245.812L1161.17,245.812ZM1165.47,240.812L1161.17,240.812L1161.17,245.112L1165.47,245.112L1165.47,240.812ZM1171.17,250.112L1175.47,250.112L1175.47,240.812L1171.17,240.812L1171.17,250.112ZM1170.47,240.812L1166.17,240.812L1166.17,245.112L1170.47,245.112L1170.47,240.812ZM1166.17,250.112L1170.47,250.112L1170.47,245.812L1166.17,245.812L1166.17,250.112ZM1166.18,237.494C1166.59,237.494 1166.93,237.828 1166.93,238.239C1166.93,238.65 1166.59,238.984 1166.18,238.984C1165.77,238.984 1165.44,238.65 1165.44,238.239C1165.44,237.828 1165.77,237.494 1166.18,237.494ZM1168.42,237.494C1168.83,237.494 1169.16,237.828 1169.16,238.239C1169.16,238.65 1168.83,238.984 1168.42,238.984C1168.01,238.984 1167.67,238.65 1167.67,238.239C1167.67,237.828 1168.01,237.494 1168.42,237.494ZM1170.65,237.494C1171.06,237.494 1171.4,237.828 1171.4,238.239C1171.4,238.65 1171.06,238.984 1170.65,238.984C1170.24,238.984 1169.91,238.65 1169.91,238.239C1169.91,237.828 1170.24,237.494 1170.65,237.494Z" style="fill:white;"></path> </g> </g> </g> </svg> 