<?xml version="1.0" encoding="UTF-8" standalone="no"?> <svg xmlns="http://www.w3.org/2000/svg" xmlns:xlink="http://www.w3.org/1999/xlink" xmlns:serif="http://www.serif.com/" width="100%" height="100%" viewBox="0 0 29 28" version="1.1" xml:space="preserve" style="fill-rule:evenodd;clip-rule:evenodd;stroke-linejoin:round;stroke-miterlimit:2;"> <g transform="matrix(1,0,0,1,-1234,-321)"> <g transform="matrix(1,0,0,1,80.4555,0)"> <g id="DonDivi-Timeline---Icon-White" serif:id="DonDivi Timeline - Icon White"> <g transform="matrix(0.215385,0,0,0.215385,1114.57,260.477)"> <rect x="185" y="281" width="130" height="130" style="fill:none;"></rect> </g> <path d="M1160.82,332.685L1165.82,332.685C1166.01,332.685 1166.17,332.841 1166.17,333.035L1166.17,337.035C1166.17,337.228 1166.01,337.385 1165.82,337.385L1160.82,337.385C1160.63,337.385 1160.47,337.228 1160.47,337.035L1160.47,333.035C1160.47,332.841 1160.63,332.685 1160.82,332.685ZM1161.17,333.385L1161.17,336.685L1165.47,336.685L1165.47,333.385L1161.17,333.385ZM1170.82,327.708L1175.82,327.708C1176.01,327.708 1176.17,327.865 1176.17,328.058L1176.17,332.058C1176.17,332.251 1176.01,332.408 1175.82,332.408L1170.82,332.408C1170.63,332.408 1170.47,332.251 1170.47,332.058L1170.47,328.058C1170.47,327.865 1170.63,327.708 1170.82,327.708ZM1171.17,328.408L1171.17,331.708L1175.47,331.708L1175.47,328.408L1171.17,328.408ZM1170.82,337.708L1175.82,337.708C1176.01,337.708 1176.17,337.865 1176.17,338.058L1176.17,342.058C1176.17,342.251 1176.01,342.408 1175.82,342.408L1170.82,342.408C1170.63,342.408 1170.47,342.251 1170.47,342.058L1170.47,338.058C1170.47,337.865 1170.63,337.708 1170.82,337.708ZM1171.17,338.408L1171.17,341.708L1175.47,341.708L1175.47,338.408L1171.17,338.408ZM1167.87,331.096C1167.44,330.949 1167.13,330.54 1167.13,330.058C1167.13,329.454 1167.62,328.963 1168.22,328.963C1168.83,328.963 1169.32,329.454 1169.32,330.058C1169.32,330.54 1169.01,330.949 1168.57,331.096L1168.57,333.997C1169.01,334.143 1169.32,334.553 1169.32,335.035C1169.32,335.517 1169.01,335.926 1168.57,336.072L1168.57,339.02C1169.01,339.166 1169.32,339.576 1169.32,340.058C1169.32,340.662 1168.83,341.153 1168.22,341.153C1167.62,341.153 1167.13,340.662 1167.13,340.058C1167.13,339.576 1167.44,339.166 1167.87,339.02L1167.87,336.072C1167.44,335.926 1167.13,335.517 1167.13,335.035C1167.13,334.553 1167.44,334.143 1167.87,333.997L1167.87,331.096ZM1168.57,330.241C1168.6,330.186 1168.62,330.124 1168.62,330.058C1168.62,329.84 1168.44,329.663 1168.22,329.663C1168.01,329.663 1167.83,329.84 1167.83,330.058C1167.83,330.124 1167.84,330.186 1167.87,330.241C1167.94,330.367 1168.07,330.453 1168.22,330.453C1168.37,330.453 1168.51,330.367 1168.57,330.241ZM1168.57,335.218C1168.6,335.163 1168.62,335.101 1168.62,335.035C1168.62,334.969 1168.6,334.907 1168.57,334.852C1168.51,334.726 1168.37,334.64 1168.22,334.64C1168.07,334.64 1167.94,334.726 1167.87,334.852C1167.84,334.907 1167.83,334.969 1167.83,335.035C1167.83,335.101 1167.84,335.163 1167.87,335.218C1167.94,335.343 1168.07,335.43 1168.22,335.43C1168.37,335.43 1168.51,335.343 1168.57,335.218ZM1167.87,339.875C1167.84,339.93 1167.83,339.992 1167.83,340.058C1167.83,340.276 1168.01,340.453 1168.22,340.453C1168.44,340.453 1168.62,340.276 1168.62,340.058C1168.62,339.992 1168.6,339.93 1168.57,339.875C1168.51,339.749 1168.37,339.663 1168.22,339.663C1168.07,339.663 1167.94,339.749 1167.87,339.875Z" style="fill:white;"></path> </g> </g> </g> </svg> 