<?xml version="1.0" encoding="UTF-8" standalone="no"?> <svg xmlns="http://www.w3.org/2000/svg" xmlns:xlink="http://www.w3.org/1999/xlink" xmlns:serif="http://www.serif.com/" width="100%" height="100%" viewBox="0 0 29 28" version="1.1" xml:space="preserve" style="fill-rule:evenodd;clip-rule:evenodd;stroke-linejoin:round;stroke-miterlimit:2;"> <g transform="matrix(1,0,0,1,-1203,-321)"> <g transform="matrix(1,0,0,1,80.4555,0)"> <g id="DonDivi-Tabs---Icon-White" serif:id="DonDivi Tabs - Icon White"> <g transform="matrix(0.215385,0,0,0.215385,1083.66,260.477)"> <rect x="185" y="281" width="130" height="130" style="fill:none;"></rect> </g> <g transform="matrix(1,0,0,1,10.0751,0)"> <path d="M1119.58,341.75L1119.58,328.25C1119.58,328.057 1119.73,327.9 1119.93,327.9L1134.93,327.9C1135.12,327.9 1135.28,328.057 1135.28,328.25L1135.28,341.75C1135.28,341.943 1135.12,342.1 1134.93,342.1L1119.93,342.1C1119.73,342.1 1119.58,341.943 1119.58,341.75ZM1124.58,328.6L1120.28,328.6L1120.28,331.4L1124.58,331.4L1124.58,328.6ZM1129.58,328.6L1125.28,328.6L1125.28,331.4L1129.58,331.4L1129.58,328.6ZM1134.58,331.4L1134.58,328.6L1130.28,328.6L1130.28,331.4L1134.58,331.4ZM1120.28,332.1L1120.28,341.4L1134.58,341.4L1134.58,332.1L1120.28,332.1Z" style="fill:white;"></path> </g> </g> </g> </g> </svg> 