<?xml version="1.0" encoding="UTF-8" standalone="no"?> <svg xmlns="http://www.w3.org/2000/svg" xmlns:xlink="http://www.w3.org/1999/xlink" xmlns:serif="http://www.serif.com/" width="100%" height="100%" viewBox="0 0 29 29" version="1.1" xml:space="preserve" style="fill-rule:evenodd;clip-rule:evenodd;stroke-linejoin:round;stroke-miterlimit:2;"> <g transform="matrix(1,0,0,1,-1234,-290)"> <g transform="matrix(1,0,0,1,80.4555,0)"> <g id="DonDivi-Popup---Icon-White" serif:id="DonDivi Popup - Icon White"> <g transform="matrix(0.215385,0,0,0.215385,1114.57,230.47)"> <rect x="185" y="281" width="130" height="130" style="fill:none;"></rect> </g> <g transform="matrix(1,0,0,1,10.0751,0)"> <path d="M1164.19,308.215L1164.19,309.993C1164.19,310.186 1164.04,310.343 1163.84,310.343L1150.84,310.343C1150.65,310.343 1150.49,310.186 1150.49,309.993L1150.49,301.993C1150.49,301.799 1150.65,301.643 1150.84,301.643L1152.49,301.643L1152.49,299.865C1152.49,299.672 1152.65,299.515 1152.84,299.515L1165.84,299.515C1166.04,299.515 1166.19,299.672 1166.19,299.865L1166.19,307.865C1166.19,308.058 1166.04,308.215 1165.84,308.215L1164.19,308.215ZM1152.49,302.343L1151.19,302.343L1151.19,309.643L1163.49,309.643L1163.49,308.215L1152.84,308.215C1152.65,308.215 1152.49,308.058 1152.49,307.865L1152.49,302.343ZM1153.19,307.515L1165.49,307.515L1165.49,300.215L1153.19,300.215L1153.19,307.515Z" style="fill:white;"></path> </g> </g> </g> </g> </svg> 