<?xml version="1.0" encoding="UTF-8" standalone="no"?> <svg xmlns="http://www.w3.org/2000/svg" xmlns:xlink="http://www.w3.org/1999/xlink" xmlns:serif="http://www.serif.com/" width="100%" height="100%" viewBox="0 0 29 29" version="1.1" xml:space="preserve" style="fill-rule:evenodd;clip-rule:evenodd;stroke-linejoin:round;stroke-miterlimit:2;"> <g transform="matrix(1,0,0,1,-1203,-230)"> <g transform="matrix(1,0,0,1,80.4555,0)"> <g id="DonDivi-Content-Toggle---Icon-White" serif:id="DonDivi Content Toggle - Icon White"> <g transform="matrix(0.215385,0,0,0.215385,1083.66,170.455)"> <rect x="185" y="281" width="130" height="130" style="fill:none;"></rect> </g> <g transform="matrix(1,0,0,1,10.0751,0)"> <path d="M1124.18,248.578C1122.19,248.578 1120.58,246.965 1120.58,244.978C1120.58,242.991 1122.19,241.378 1124.18,241.378L1130.68,241.378C1132.66,241.378 1134.28,242.991 1134.28,244.978C1134.28,246.965 1132.66,248.578 1130.68,248.578L1124.18,248.578ZM1124.18,242.078C1122.58,242.078 1121.28,243.378 1121.28,244.978C1121.28,246.579 1122.58,247.878 1124.18,247.878C1125.78,247.878 1127.08,246.579 1127.08,244.978C1127.08,243.378 1125.78,242.078 1124.18,242.078ZM1126.31,247.878L1130.68,247.878C1132.28,247.878 1133.58,246.579 1133.58,244.978C1133.58,243.378 1132.28,242.078 1130.68,242.078L1126.31,242.078C1127.2,242.734 1127.78,243.789 1127.78,244.978C1127.78,246.167 1127.2,247.223 1126.31,247.878Z" style="fill:white;"></path> </g> </g> </g> </g> </svg> 