<?xml version="1.0" encoding="UTF-8" standalone="no"?> <svg xmlns="http://www.w3.org/2000/svg" xmlns:xlink="http://www.w3.org/1999/xlink" xmlns:serif="http://www.serif.com/" width="100%" height="100%" viewBox="0 0 29 29" version="1.1" xml:space="preserve" style="fill-rule:evenodd;clip-rule:evenodd;stroke-linejoin:round;stroke-miterlimit:2;"> <g transform="matrix(1,0,0,1,-1203,-290)"> <g transform="matrix(1,0,0,1,80.4555,0)"> <g id="DonDivi-Nav-Menu---Icon-White" serif:id="DonDivi Nav Menu - Icon White"> <g transform="matrix(0.215385,0,0,0.215385,1083.66,230.47)"> <rect x="185" y="281" width="130" height="130" style="fill:none;"></rect> </g> <g transform="matrix(1,0,0,1,10.0751,0)"> <path d="M1124.57,302.327L1119.98,302.327C1119.79,302.327 1119.63,302.171 1119.63,301.977L1119.63,298.998C1119.63,298.805 1119.79,298.648 1119.98,298.648L1134.88,298.648C1135.07,298.648 1135.23,298.805 1135.23,298.998L1135.23,301.977C1135.23,302.171 1135.07,302.327 1134.88,302.327L1132.27,302.327L1132.27,310.848C1132.27,311.118 1132.05,311.338 1131.78,311.338L1125.06,311.338C1124.79,311.338 1124.57,311.118 1124.57,310.848L1124.57,302.327ZM1124.6,299.348L1120.33,299.348C1120.33,299.348 1120.33,301.627 1120.33,301.627L1124.6,301.627L1124.6,299.348ZM1129.56,299.348L1125.3,299.348L1125.3,301.627L1129.56,301.627L1129.56,299.348ZM1130.26,301.627L1134.53,301.627L1134.53,299.348L1130.26,299.348L1130.26,301.627ZM1125.27,302.327L1125.27,310.638L1131.57,310.638L1131.57,302.327L1125.27,302.327ZM1126.92,308.223C1126.73,308.223 1126.57,308.066 1126.57,307.873C1126.57,307.68 1126.73,307.523 1126.92,307.523L1129.92,307.523C1130.11,307.523 1130.27,307.68 1130.27,307.873C1130.27,308.066 1130.11,308.223 1129.92,308.223L1126.92,308.223ZM1126.92,305.442C1126.73,305.442 1126.57,305.285 1126.57,305.092C1126.57,304.898 1126.73,304.742 1126.92,304.742L1129.92,304.742C1130.11,304.742 1130.27,304.898 1130.27,305.092C1130.27,305.285 1130.11,305.442 1129.92,305.442L1126.92,305.442Z" style="fill:white;"></path> </g> </g> </g> </g> </svg> 