<svg width="28" height="28" viewBox="0 0 28 28" fill="none" xmlns="http://www.w3.org/2000/svg">
<path fill-rule="evenodd" clip-rule="evenodd" d="M0 14C0 6.26818 6.26818 0 14 0C21.7318 0 28 6.26818 28 14C28 21.7318 21.7318 28 14 28C6.26818 28 0 21.7318 0 14ZM14 25.4545C12.4958 25.4545 11.0063 25.1583 9.61654 24.5826C8.22681 24.007 6.96407 23.1632 5.90041 22.0996C4.83676 21.0359 3.99302 19.7732 3.41738 18.3835C2.84173 16.9937 2.54545 15.5042 2.54545 14C2.54545 12.4958 2.84173 11.0063 3.41738 9.61654C3.99302 8.22681 4.83676 6.96407 5.90041 5.90041C6.96407 4.83676 8.22681 3.99302 9.61654 3.41738C11.0063 2.84173 12.4958 2.54545 14 2.54545C17.0379 2.54545 19.9514 3.75227 22.0996 5.90041C24.2477 8.04856 25.4545 10.9621 25.4545 14C25.4545 17.0379 24.2477 19.9514 22.0996 22.0996C19.9514 24.2477 17.0379 25.4545 14 25.4545Z" fill="white"/>
</svg>
